<svg id="Group_5987" data-name="Group 5987" xmlns="http://www.w3.org/2000/svg" width="42" height="42" viewBox="0 0 42 42">
  <circle id="Ellipse_58" data-name="Ellipse 58" cx="20" cy="20" r="20" transform="translate(1 1)" fill="#fff"/>
  <path id="Path_4522" data-name="Path 4522" d="M23.25,2.25a21,21,0,1,0,21,21A21,21,0,0,0,23.25,2.25Zm-3.7,15.012a1.615,1.615,0,1,0-2.283,2.283l3.7,3.7-3.7,3.7a1.615,1.615,0,1,0,2.283,2.283l3.7-3.7,3.7,3.7a1.615,1.615,0,1,0,2.283-2.283l-3.7-3.7,3.7-3.7a1.615,1.615,0,1,0-2.283-2.283l-3.7,3.7Z" transform="translate(-2.25 -2.25)" fill="#ff3e2f" fill-rule="evenodd"/>
</svg>
